<svg xmlns="http://www.w3.org/2000/svg" width="1em" height="1em" viewBox="0 0 32 32">
    <path fill="inherit" d="M17.817 12.867l.024-.252a.752.752 0 0 1 .742-.7h1.135a.75.75 0 0 1 .742.7l.046.252h1.064a.67.67 0 0 1 .623.427h-.009a40.95 40.95 0 0 0-.559-2.372c-.286-1.058-.832-1.254-1.472-1.28H13.658c-.644 0-1.19.201-1.472 1.28a40.95 40.95 0 0 0-.559 2.372.67.67 0 0 1 .623-.427h5.565zm1.338-.952a.853.853 0 1 1 0-1.706.853.853 0 0 1 0 1.706zm4.258-2.031h.158a.751.751 0 0 1 .747.751v1.412a.751.751 0 0 1-.747.751h-.09a.751.751 0 0 1-.747-.751v-.96h-.738l.226 2.47v-.03 4.907a.67.67 0 0 1-.666.67h.725c.156 0 .282.126.282.282v1.045a.282.282 0 0 1-.282.282h-.363v.555a.615.615 0 0 1-.627.614h-1.766a.614.614 0 0 1-.61-.614l-.026-.555h-3.972l-.026.555a.613.613 0 0 1-.61.614h-1.749a.614.614 0 0 1-.632-.623v-.555h-.363a.282.282 0 0 1-.282-.282v-1.041c0-.156.126-.282.282-.282h.708a.67.67 0 0 1-.666-.67v-4.885l.226-2.47h-.742v1.003a.751.751 0 0 1-.747.751h-.09a.751.751 0 0 1-.747-.751v-1.399c0-.413.334-.749.747-.751h.23a.74.74 0 0 1 .273.098l1.161.427.192-2.133.137-2.261a.67.67 0 0 1 .666-.67s2.074-.179 4.028-.179 4.028.179 4.028.179a.671.671 0 0 1 .666.627l.137 2.261.192 2.133 1.161-.427a.74.74 0 0 1 .273-.098h.043zm-9.561 8.359v-.132a.597.597 0 0 0-.593-.597h-.695a.597.597 0 0 0-.593.597v.132c0 .328.265.595.593.597h.695a.597.597 0 0 0 .593-.597zm5.546.264c.009-.338.026-.67.051-.994h-5.094c.034.327.051.659.051.994h4.992zm.128-1.796h.013c.038-.341.09-.674.145-.994h-5.547c.055.32.107.653.145.994h5.244zm-2.598-1.796h2.91c.085-.35.175-.683.277-.994h-6.409c.102.311.196.644.277.994h2.944zm4.919 3.328l-.013-.132a.597.597 0 0 0-.593-.597h-.695a.597.597 0 0 0-.593.597v.132c0 .328.265.595.593.597h.708a.597.597 0 0 0 .593-.597z"></path>
    <path fill="currentColor" d="M6.074 12.889c0-5.963 4.852-10.815 10.815-10.815s10.815 4.851 10.815 10.815c0 2.312-1.438 5.798-3.886 9.497-.427-.263-1.012-.546-1.567-.546-1.038 0-1.143 1.024-2.19 1.024s-2.086-1.023-3.129-1.023l-.021-.002c-1.043 0-2.099 1.024-3.147 1.024s-1.084-1.024-2.122-1.024c-.567 0-1.156.295-1.576.563-2.546-3.771-3.992-7.194-3.992-9.514zM16.889 0C9.782 0 4 5.782 4 12.889c0 4.318 3.74 9.903 5.348 12.103.524.718 5.188 7.008 7.541 7.008 3.293 0 12.889-12.284 12.889-19.111C29.778 5.782 23.996 0 16.889 0z"></path>
</svg>