<svg width="1em" height="1em" viewBox="0 0 32 32">
    <path fill="inherit" d="M13.811 21.504v-2.396h.742v2.396h-.742zm5.248 0v-2.396h.742v2.396h-.742zM12.1 17.569a1.141 1.141 0 1 1 0 2.282 1.141 1.141 0 0 1 0-2.282zm4.918-5.37h4.675V8.498h-4.675v3.701zm-5.111 0h4.675V8.498h-4.675v3.701zm9.564 4.913c-.649 0-1.198.425-1.386 1.011h-.012a.619.619 0 0 0-.553-.346h-5.442a.619.619 0 0 0-.553.346h-.012a1.456 1.456 0 0 0-2.536-.446.623.623 0 0 1-.029-.189v-2.547a.733.733 0 0 0 .698.516h1.623c.402 0 .73-.329.73-.73s-.329-.73-.73-.73h-2.224a.128.128 0 0 0-.097.045v-5.54a1.202 1.202 0 0 1-.016-.198c0-1.468 2.621-2.658 5.858-2.662h.019c3.237.005 5.858 1.195 5.858 2.662a1.3 1.3 0 0 1-.016.198v5.54a.13.13 0 0 0-.097-.045H20.33c-.402 0-.731.329-.731.73s.329.73.731.73h1.623a.733.733 0 0 0 .698-.516v2.547c0 .066-.01.129-.029.189a1.453 1.453 0 0 0-1.15-.565zm.041.457a1.141 1.141 0 1 1 0 2.282 1.141 1.141 0 0 1 0-2.282z"></path>
    <path fill="currentColor" d="M6.074 12.889c0-5.963 4.852-10.815 10.815-10.815s10.815 4.851 10.815 10.815c0 2.312-1.438 5.798-3.886 9.497-.427-.263-1.012-.546-1.567-.546-1.038 0-1.143 1.024-2.19 1.024s-2.086-1.023-3.129-1.023l-.021-.002c-1.043 0-2.099 1.024-3.147 1.024s-1.084-1.024-2.122-1.024c-.567 0-1.156.295-1.576.563-2.546-3.771-3.992-7.194-3.992-9.514zM16.889 0C9.782 0 4 5.782 4 12.889c0 4.318 3.74 9.903 5.348 12.103.524.718 5.188 7.008 7.541 7.008 3.293 0 12.889-12.284 12.889-19.111C29.778 5.782 23.996 0 16.889 0z"></path>
</svg>