<svg width="1em" height="1em" viewBox="0 0 32 32">
  <path fill="currentColor" d="M24.615 8.527c0 4.709-3.858 8.526-8.615 8.526-4.759 0-8.615-3.817-8.615-8.526C7.385 3.817 11.242 0 16 0s8.615 3.817 8.615 8.527zm7.281 18.115L32 27.73C27.614 30.518 21.871 32 16.273 32c-.091 0-.183-.001-.272-.003l-.272.003c-5.6 0-11.342-1.481-15.728-4.27l.111-1.114a8.812 8.812 0 0 1 1.528-4.395 9.068 9.068 0 0 1 7.483-3.95h1.768l.475.004c.575 0 1.006.11 1.295.333.288.221.591.616.911 1.186l2.461 4.177 2.398-4.177c.321-.57.623-.965.911-1.186.288-.223.72-.333 1.295-.333l.475-.004h1.768a9.066 9.066 0 0 1 7.483 3.95 8.892 8.892 0 0 1 1.535 4.421z"></path>
</svg>