<svg width="1em" height="1em" viewBox="0 0 32 32">
  <path fill="currentColor" d="M16 25.333a9.333 9.333 0 1 1 0-18.666 9.333 9.333 0 1 1 0 18.666zM30.667 12h-1.001a1.336 1.336 0 0 1-1.229-.818v.04a15.07 15.07 0 0 0-.255-.63l.02.02a1.336 1.336 0 0 1 .291-1.447l.708-.708a1.337 1.337 0 0 0 0-1.886L25.43 2.8a1.339 1.339 0 0 0-1.886 0l-.708.708c-.39.39-.965.486-1.447.291l.02.02a13.166 13.166 0 0 0-.63-.255h.04a1.338 1.338 0 0 1-.818-1.229V1.334c0-.733-.6-1.333-1.333-1.333h-5.334c-.733 0-1.333.6-1.333 1.333v1.001c0 .551-.338 1.027-.818 1.229h.04a15.07 15.07 0 0 0-.63.255l.02-.02a1.336 1.336 0 0 1-1.447-.291L8.458 2.8a1.339 1.339 0 0 0-1.886 0L2.801 6.571a1.339 1.339 0 0 0 0 1.886l.708.708c.39.39.486.965.291 1.447l.02-.02a15.07 15.07 0 0 0-.255.63v-.04A1.338 1.338 0 0 1 2.336 12H1.335c-.733 0-1.333.6-1.333 1.333v5.334C.002 19.4.602 20 1.335 20h1.001c.551 0 1.027.338 1.229.818v-.04c.082.212.164.423.255.63l-.02-.02a1.336 1.336 0 0 1-.291 1.447l-.708.708a1.339 1.339 0 0 0 0 1.886L6.572 29.2a1.337 1.337 0 0 0 1.886 0l.708-.708c.701-.701 2.091-.326 2.609.44.146.216.226.473.226.734v1.001c0 .733.6 1.333 1.333 1.333h5.334c.733 0 1.333-.6 1.333-1.333v-1.001c0-.551.338-1.027.818-1.229h-.04c.212-.082.423-.164.63-.255l-.02.02a1.336 1.336 0 0 1 1.447.291l.708.708a1.337 1.337 0 0 0 1.886 0l3.771-3.771a1.337 1.337 0 0 0 0-1.886l-.708-.708a1.338 1.338 0 0 1-.291-1.447l-.02.02c.091-.207.173-.418.255-.63v.04a1.338 1.338 0 0 1 1.229-.818h1.001c.733 0 1.333-.6 1.333-1.333v-5.334c0-.733-.6-1.333-1.333-1.333z"></path>
</svg>